<?xml version="1.0" encoding="UTF-8" standalone="no"?>
<svg version="1.1" xmlns="http://www.w3.org/2000/svg" xmlns:xlink="http://www.w3.org/1999/xlink" xmlns:i="http://ns.adobe.com/AdobeIllustrator/10.0/" width="389.44" height="396.16">
	<g id="dp_dp001" transform="matrix(1,0,0,1,-361.185,-195.375)">
		<path id="dp_path002" fill="#00b0f0" fill-rule="evenodd" d="M 384.192,195.379 L 562.636,195.379 C 593.745,195.379 620.136,206.033 641.704,227.295 C 663.527,248.407 674.439,273.839 674.439,303.539 C 674.439,333.489 663.527,358.973 641.704,380.085 C 619.932,401.148 593.54,411.704 562.632,411.701 L 473.413,411.701 C 458.337,411.701 450.825,404.435 450.829,389.852 C 450.829,375.273 458.34,368.007 473.413,368.004 L 562.632,368.004 C 581.055,368.004 596.739,361.768 609.628,349.3 C 622.673,336.633 629.219,321.364 629.219,303.541 C 629.221,285.913 622.669,270.744 609.628,258.073 C 596.535,245.46 580.853,239.121 562.632,239.125 L 384.192,239.121 C 368.913,239.125 361.304,231.809 361.3,217.227 C 361.304,202.645 368.917,195.379 384.192,195.379 Z "/>
		<path id="dp_path003" fill="#383536" fill-rule="evenodd" d="M 702.809,458.801 L 705.361,218.696 C 705.52,204.115 713.109,196.924 728.177,197.075 C 743.253,197.224 750.735,204.565 750.583,219.147 L 747.82,478.367 C 747.665,492.899 740.027,500.14 724.957,499.989 C 723.857,499.979 722.803,499.932 721.793,499.843 L 721.773,499.841 L 386.352,500.279 C 371.075,500.124 363.543,492.732 363.697,478.2 L 364.62,391.596 C 364.935,362.044 376.217,336.769 398.417,315.679 C 420.669,294.641 447.169,284.253 477.875,284.56 L 567.088,285.448 C 582.161,285.595 589.595,292.936 589.439,307.52 C 589.281,322.297 581.693,329.587 566.624,329.437 L 477.403,328.548 C 459.187,328.367 443.337,334.441 429.911,346.78 C 416.879,359.516 410.327,374.572 410.141,392.051 L 409.452,456.757 Z "/>
		<path id="dp_path004" fill="#383536" fill-rule="evenodd" d="M 384.98,573.649 C 381.008,573.893 376.704,573.831 372.068,573.468 C 367.433,573.097 365.116,570.077 365.116,564.411 L 365.116,510.115 L 371.612,510.115 C 373.18,510.115 374.56,510.731 375.765,511.96 C 376.972,513.189 377.571,514.672 377.571,516.389 L 377.571,524.699 L 384.98,524.699 L 384.98,527.299 C 384.98,529.152 384.381,530.665 383.175,531.84 C 381.969,533.015 380.519,533.605 378.832,533.605 L 377.571,533.605 L 377.571,560.895 C 377.571,562.984 378.776,564.032 381.189,564.032 L 384.98,564.032 Z "/>
		<path id="dp_path005" fill="#383536" fill-rule="evenodd" d="M 439.377,573.649 L 426.741,573.649 L 419.348,538.571 L 411.947,573.649 L 399.319,573.649 L 386.147,524.54 L 398.42,524.54 L 405.995,558.515 L 412.853,524.54 L 425.661,524.54 L 432.157,558.515 L 438.833,528.971 C 439.559,526.015 441.483,524.54 444.612,524.54 L 444.612,524.54 L 452.549,524.54 Z "/>
		<path id="dp_path006" fill="#383536" fill-rule="evenodd" d="M 489.164,558.515 L 498.181,558.515 C 496.857,563.693 494.335,567.635 490.607,570.345 C 486.877,573.176 482.188,574.595 476.536,574.595 C 469.671,574.595 464.311,572.316 460.456,567.752 C 456.593,563.315 454.661,556.961 454.661,548.7 C 454.661,540.809 456.529,534.637 460.275,530.2 C 464.136,525.636 469.489,523.357 476.355,523.357 C 483.567,523.357 489.164,525.573 493.128,530.011 C 496.983,534.567 498.907,540.912 498.907,549.04 C 498.907,549.536 498.907,549.961 498.907,550.332 C 498.907,550.703 498.907,550.947 498.907,551.073 C 498.907,551.688 498.844,552.121 498.725,552.365 L 467.511,552.365 C 467.628,556.204 468.535,559.051 470.215,560.903 C 471.783,562.881 474.124,563.875 477.253,563.875 C 479.295,563.875 481.045,563.441 482.487,562.581 C 482.849,562.456 483.181,562.243 483.48,561.935 C 483.78,561.628 484.111,561.289 484.473,560.919 C 484.592,560.548 485.041,560.051 485.821,559.436 C 486.609,558.821 487.721,558.515 489.164,558.515 Z M 467.511,544.089 L 485.916,544.089 C 485.672,540.755 484.836,538.28 483.385,536.672 C 481.825,534.945 479.603,534.079 476.709,534.079 C 474.068,534.079 471.901,534.945 470.215,536.672 C 468.535,538.405 467.628,540.873 467.511,544.089 Z "/>
		<path id="dp_path007" fill="#383536" fill-rule="evenodd" d="M 542.772,573.649 L 536.459,573.649 C 534.653,573.649 533.179,573.065 532.036,571.891 C 530.893,570.724 530.317,569.219 530.317,567.375 L 530.317,567.375 L 530.317,542.26 C 530.317,539.304 529.443,537.144 527.701,535.797 C 525.951,534.441 523.996,533.763 521.836,533.763 C 519.668,533.763 517.737,534.441 516.059,535.797 C 514.372,537.144 513.528,539.304 513.528,542.26 L 513.528,573.649 L 500.916,573.649 L 500.916,544.853 C 500.916,536.483 503.052,530.885 507.324,528.048 C 511.589,525.219 516.311,523.681 521.481,523.437 C 526.779,523.437 531.651,524.856 536.096,527.685 C 540.549,530.516 542.772,536.239 542.772,544.853 Z "/>
		<path id="dp_path008" fill="#383536" fill-rule="evenodd" d="M 566.088,573.649 C 562.116,573.893 557.812,573.831 553.176,573.468 C 548.541,573.097 546.224,570.077 546.224,564.411 L 546.224,510.115 L 552.72,510.115 C 554.288,510.115 555.668,510.731 556.873,511.96 C 558.08,513.189 558.679,514.672 558.679,516.389 L 558.679,524.699 L 566.088,524.699 L 566.088,527.299 C 566.088,529.152 565.489,530.665 564.283,531.84 C 563.077,533.015 561.627,533.605 559.94,533.605 L 558.679,533.605 L 558.679,560.895 C 558.679,562.984 559.884,564.032 562.297,564.032 L 566.088,564.032 Z "/>
		<path id="dp_path009" fill="#383536" fill-rule="evenodd" d="M 574.112,591.013 L 574.112,580.821 L 577.541,580.821 C 579.945,580.821 581.837,580.239 583.225,579.072 C 584.604,577.897 584.88,576.021 584.036,573.444 L 567.255,524.54 L 581.152,524.54 L 590.895,559.271 L 599.376,528.971 L 599.376,528.971 C 600.093,526.015 602.017,524.54 605.147,524.54 L 613.809,524.54 L 595.403,580.491 C 593.961,584.551 592.156,587.443 589.988,589.169 C 587.828,590.644 584.273,591.384 579.347,591.384 C 578.984,591.384 578.559,591.384 578.077,591.384 C 577.596,591.384 577.179,591.384 576.816,591.384 C 576.453,591.259 576.004,591.172 575.468,591.108 C 574.924,591.045 574.475,591.013 574.112,591.013 Z "/>
		<path id="dp_path010" fill="#00a1e4" fill-rule="evenodd" d="M 621.888,569.211 C 619.359,566.996 617.553,564.008 616.473,560.256 C 615.385,556.496 614.849,552.587 614.849,548.519 C 614.849,545.2 615.299,541.875 616.197,538.548 C 617.104,535.221 618.515,532.447 620.439,530.232 C 623.568,526.535 627.596,524.351 632.531,523.673 C 637.464,522.996 641.911,523.397 645.883,524.872 C 650.455,526.724 653.821,529.924 655.988,534.48 C 658.031,538.548 659.055,543.285 659.055,548.708 C 659.055,552.649 658.637,556.039 657.793,558.869 C 656.951,561.699 655.871,564.103 654.547,566.073 C 651.653,570.141 647.988,572.664 643.535,573.649 C 639.569,574.76 635.565,574.847 631.537,573.924 C 627.509,573.003 624.293,571.433 621.888,569.211 Z M 630.52,536.695 C 627.989,539.533 626.847,543.751 627.091,549.355 C 627.328,554.959 628.352,558.869 630.157,561.084 C 630.883,562.069 632.144,562.905 633.949,563.583 C 635.755,564.26 637.583,564.316 639.451,563.764 C 641.311,563.212 642.967,561.825 644.409,559.609 C 645.852,557.387 646.64,553.816 646.759,548.889 C 646.759,544.46 646.064,541.133 644.685,538.919 C 643.297,536.695 641.705,535.284 639.9,534.669 C 638.095,534.055 636.291,534.023 634.485,534.575 C 632.68,535.127 631.364,535.836 630.52,536.695 Z "/>
		<path id="dp_path011" fill="#00a1e4" fill-rule="evenodd" d="M 702.944,573.649 L 696.631,573.649 C 694.825,573.649 693.351,573.065 692.208,571.891 C 691.065,570.724 690.489,569.219 690.489,567.375 L 690.489,567.375 L 690.489,542.26 C 690.489,539.304 689.615,537.144 687.873,535.797 C 686.123,534.441 684.168,533.763 682.008,533.763 C 679.84,533.763 677.909,534.441 676.231,535.797 C 674.544,537.144 673.7,539.304 673.7,542.26 L 673.7,573.649 L 661.088,573.649 L 661.088,544.853 C 661.088,536.483 663.224,530.885 667.496,528.048 C 671.761,525.219 676.483,523.681 681.653,523.437 C 686.951,523.437 691.823,524.856 696.268,527.685 C 700.721,530.516 702.944,536.239 702.944,544.853 Z "/>
		<path id="dp_path012" fill="#00a1e4" fill-rule="evenodd" d="M 738.376,558.515 L 747.393,558.515 C 746.069,563.693 743.547,567.635 739.819,570.345 C 736.089,573.176 731.4,574.595 725.748,574.595 C 718.883,574.595 713.523,572.316 709.668,567.752 C 705.805,563.315 703.873,556.961 703.873,548.7 C 703.873,540.809 705.741,534.637 709.487,530.2 C 713.348,525.636 718.701,523.357 725.567,523.357 C 732.779,523.357 738.376,525.573 742.34,530.011 C 746.195,534.567 748.119,540.912 748.119,549.04 C 748.119,549.536 748.119,549.961 748.119,550.332 C 748.119,550.703 748.119,550.947 748.119,551.073 C 748.119,551.688 748.056,552.121 747.937,552.365 L 716.723,552.365 C 716.84,556.204 717.747,559.051 719.427,560.903 C 720.995,562.881 723.336,563.875 726.465,563.875 C 728.507,563.875 730.257,563.441 731.699,562.581 C 732.061,562.456 732.393,562.243 732.692,561.935 C 732.992,561.628 733.323,561.289 733.685,560.919 C 733.804,560.548 734.253,560.051 735.033,559.436 C 735.821,558.821 736.933,558.515 738.376,558.515 Z M 716.723,544.089 L 735.128,544.089 C 734.884,540.755 734.048,538.28 732.597,536.672 C 731.037,534.945 728.815,534.079 725.921,534.079 C 723.28,534.079 721.113,534.945 719.427,536.672 C 717.747,538.405 716.84,540.873 716.723,544.089 Z "/>
	</g>
</svg>